<svg width="420" height="300" viewBox="0 0 420 300" fill="none" xmlns="http://www.w3.org/2000/svg">
  <rect width="420" height="300" rx="22" fill="#EEF8F7"/>
  <circle cx="326" cy="58" r="34" fill="#85C7BB"/>
  <circle cx="72" cy="65" r="24" fill="#F4D46E"/>
  <ellipse cx="210" cy="215" rx="130" ry="34" fill="#2B2522" opacity=".11"/>
  <ellipse cx="210" cy="164" rx="148" ry="76" fill="#352B28"/>
  <ellipse cx="210" cy="151" rx="128" ry="58" fill="#F7E6B2"/>
  <path d="M105 153C141 121 183 110 230 117C274 123 306 112 339 90C320 134 279 162 227 160C178 158 141 166 105 153Z" fill="#EBD59A"/>
  <circle cx="166" cy="144" r="17" fill="#FFFFFF"/>
  <circle cx="247" cy="132" r="15" fill="#FFFFFF"/>
  <path d="M152 172C180 156 212 153 250 161" stroke="#74A79A" stroke-width="10" stroke-linecap="round"/>
  <path d="M227 116C235 96 244 80 255 68" stroke="#2E7C54" stroke-width="10" stroke-linecap="round"/>
  <path d="M182 123C171 104 165 87 165 72" stroke="#2E7C54" stroke-width="10" stroke-linecap="round"/>
  <path d="M114 205H306" stroke="#2B2522" stroke-width="21" stroke-linecap="round"/>
  <rect x="130" y="221" width="160" height="19" rx="9.5" fill="#74A79A"/>
</svg>
